<?xml version="1.0" standalone="no"?>
<!DOCTYPE svg PUBLIC "-//W3C//DTD SVG 20010904//EN"
 "http://www.w3.org/TR/2001/REC-SVG-20010904/DTD/svg10.dtd">
<svg version="1.0" xmlns="http://www.w3.org/2000/svg"
 width="31.000000pt" height="31.000000pt" viewBox="0 0 31.000000 31.000000"
 preserveAspectRatio="xMidYMid meet">

<g transform="translate(0.000000,31.000000) scale(0.100000,-0.100000)"
fill="#000000" stroke="none">
<path d="M0 155 l0 -155 155 0 155 0 0 155 0 155 -155 0 -155 0 0 -155z m139
18 l24 -16 -23 -19 c-12 -10 -30 -18 -39 -17 -12 0 -11 3 6 16 l23 15 -23 19
c-29 24 -2 26 32 2z m72 -78 c0 -5 -7 -12 -16 -13 -23 -5 -47 6 -40 19 8 13
56 8 56 -6z"/>
</g>
</svg>
